<?xml version="1.0" encoding="UTF-8" standalone="no"?>
<!-- Created with Inkscape (http://www.inkscape.org/) -->

<svg
   xmlns:dc="http://purl.org/dc/elements/1.1/"
   xmlns:cc="http://creativecommons.org/ns#"
   xmlns:rdf="http://www.w3.org/1999/02/22-rdf-syntax-ns#"
   xmlns:svg="http://www.w3.org/2000/svg"
   xmlns="http://www.w3.org/2000/svg"
   xmlns:sodipodi="http://sodipodi.sourceforge.net/DTD/sodipodi-0.dtd"
   xmlns:inkscape="http://www.inkscape.org/namespaces/inkscape"
   id="svg4118"
   version="1.1"
   inkscape:version="0.48.3.1 r9886"
   width="829.6369"
   height="797.12866"
   sodipodi:docname="workspace-bw.png">
  <metadata
     id="metadata4124">
    <rdf:RDF>
      <cc:Work
         rdf:about="">
        <dc:format>image/svg+xml</dc:format>
        <dc:type
           rdf:resource="http://purl.org/dc/dcmitype/StillImage" />
        <dc:title></dc:title>
      </cc:Work>
    </rdf:RDF>
  </metadata>
  <defs
     id="defs4122" />
  <sodipodi:namedview
     pagecolor="#ffffff"
     bordercolor="#666666"
     borderopacity="1"
     objecttolerance="10"
     gridtolerance="10"
     guidetolerance="10"
     inkscape:pageopacity="0"
     inkscape:pageshadow="2"
     inkscape:window-width="1231"
     inkscape:window-height="776"
     id="namedview4120"
     showgrid="false"
     fit-margin-top="0"
     fit-margin-left="0"
     fit-margin-right="0"
     fit-margin-bottom="0"
     inkscape:zoom="0.49826389"
     inkscape:cx="361.00973"
     inkscape:cy="391.48008"
     inkscape:window-x="49"
     inkscape:window-y="24"
     inkscape:window-maximized="1"
     inkscape:current-layer="layer9" />
  <g
     inkscape:groupmode="layer"
     id="layer7"
     inkscape:label="bildschirm"
     style="display:inline"
     transform="translate(-120.72546,-170.35144)">
    <path
       style="fill:#000000;fill-opacity:1;stroke:none"
       d="m 629.24738,377.31707 321.11499,0 -4.01394,180.62717 -313.08711,132.45994 z"
       id="path4164"
       inkscape:connector-curvature="0"
       sodipodi:nodetypes="ccccc" />
  </g>
  <g
     inkscape:groupmode="layer"
     id="layer8"
     inkscape:label="face"
     style="display:inline"
     transform="translate(-120.72546,-170.35144)">
    <path
       sodipodi:type="arc"
       style="fill:#000000;fill-opacity:1;stroke:none"
       id="path4705"
       sodipodi:cx="391.35889"
       sodipodi:cy="322.11847"
       sodipodi:rx="18.062717"
       sodipodi:ry="17.059233"
       d="m 409.41646,321.71142 c 0.23803,9.41887 -7.65366,17.23662 -17.62658,17.46142 -9.97292,0.22481 -18.25054,-7.22845 -18.48857,-16.64732 -0.23803,-9.41887 7.65366,-17.23662 17.62658,-17.46143 9.95951,-0.2245 18.23105,7.20912 18.48772,16.61487"
       sodipodi:start="6.2593221"
       sodipodi:end="12.540604"
       sodipodi:open="true"
       transform="matrix(1.1910057,0,0,1.2610645,-77.24279,-93.351996)" />
    <path
       sodipodi:type="arc"
       style="fill:#000000;fill-opacity:1;stroke:none"
       id="path4705-2"
       sodipodi:cx="391.35889"
       sodipodi:cy="322.11847"
       sodipodi:rx="18.062717"
       sodipodi:ry="17.059233"
       d="m 409.41646,321.71142 c 0.23803,9.41887 -7.65366,17.23662 -17.62658,17.46142 -9.97292,0.22481 -18.25054,-7.22845 -18.48857,-16.64732 -0.23803,-9.41887 7.65366,-17.23662 17.62658,-17.46143 9.95951,-0.2245 18.23105,7.20912 18.48772,16.61487"
       sodipodi:start="6.2593221"
       sodipodi:end="12.540604"
       sodipodi:open="true"
       transform="matrix(1.1910057,0,0,1.2610645,-4.0651149,-97.442596)" />
    <path
       style="fill:#000000;fill-opacity:1;stroke:none"
       d="m 420.98632,170.35144 c 104.48458,40.88095 86.60022,296.16696 -78.27177,224.7805 99.87872,38.59077 181.16379,-125.09315 78.27177,-224.7805 z"
       id="path4725"
       inkscape:connector-curvature="0"
       sodipodi:nodetypes="ccc" />
    <path
       style="fill:#000000;fill-opacity:1;stroke:none"
       d="m 384.86089,365.0274 46.16028,20.06969 -18.06272,14.04878 z"
       id="path4727"
       inkscape:connector-curvature="0" />
    <path
       style="fill:#000000;fill-opacity:1;stroke:none"
       d="m 372.81908,280.73472 c 18.59335,-8.62975 34.11846,-2.00697 34.11846,-2.00697 3.58411,-17.25568 -35.9169,-12.12355 -34.11846,2.00697 z"
       id="path4729"
       inkscape:connector-curvature="0"
       sodipodi:nodetypes="ccc" />
    <path
       style="fill:#000000;fill-opacity:1;stroke:none"
       d="m 440.68093,273.30509 c 0,0 16.56094,-4.78228 31.55906,-2.49545 -24.24274,-19.70297 -31.55906,2.49545 -31.55906,2.49545 z"
       id="path4731"
       inkscape:connector-curvature="0"
       sodipodi:nodetypes="ccc" />
  </g>
  <g
     inkscape:groupmode="layer"
     id="layer9"
     inkscape:label="Layer"
     style="display:inline"
     transform="translate(-120.72546,-170.35144)">
    <path
       style="fill:#ffffff;fill-opacity:1"
       d="m 858.68921,497.63491 c -56.8201,-113.50862 -100.21372,-25.6162 -94.32752,116.40418 16.6181,-82.72826 18.63362,-113.53712 94.32752,-116.40418 z"
       id="path4693"
       inkscape:connector-curvature="0"
       sodipodi:nodetypes="ccc" />
    <path
       style="fill:#000000;fill-opacity:1;stroke:none"
       d="m 806.50801,600.83196 2.007,99.50678 14.0487,-3.43127 -2.0069,-102.93806 z"
       id="path4695"
       inkscape:connector-curvature="0"
       sodipodi:nodetypes="ccccc" />
    <path
       style="fill:#000000;fill-opacity:1;stroke:none"
       d="m 750.31284,820.75685 c -47.2043,-110.81313 116.264,-144.64926 194.676,-130.45296 -203.19,-58.49215 -286.3196,74.92286 -194.676,130.45296 z"
       id="path4699"
       inkscape:connector-curvature="0"
       sodipodi:nodetypes="ccc" />
    <path
       sodipodi:type="arc"
       style="fill:#000000;fill-opacity:1;stroke:none"
       id="path4703"
       sodipodi:cx="443.75131"
       sodipodi:cy="719.86334"
       sodipodi:rx="40.363533"
       sodipodi:ry="42.954819"
       d="m 484.10335,718.8384 c 0.53192,23.71654 -17.10311,43.40147 -39.38893,43.96753 -22.28581,0.56606 -40.78324,-18.20111 -41.31515,-41.91765 -0.53191,-23.71653 17.10311,-43.40147 39.38893,-43.96753 22.11859,-0.56181 40.53978,17.93024 41.30264,41.46152"
       sodipodi:start="6.2593221"
       sodipodi:end="12.531884"
       sodipodi:open="true"
       transform="matrix(1.2745717,0,0,1.0768244,-110.9022,-51.951323)" />
    <path
       style="fill:#000000;fill-opacity:1;stroke:none"
       d="M 256.59859,449.46767 C 172.30591,704.35269 505.46273,730.44327 505.46273,730.44327 299.26787,828.71884 81.470735,645.42011 256.59859,449.46767 z"
       id="path4733"
       inkscape:connector-curvature="0"
       sodipodi:nodetypes="ccc" />
    <path
       style="fill:#000000;fill-opacity:1;stroke:none"
       d="m 479.37208,601.99729 c 43.3987,-16.49559 132.57119,-8.76123 126.43909,78.27177 -54.19635,-35.83289 -49.61507,-61.567 -126.43909,-78.27177 z"
       id="path4735"
       inkscape:connector-curvature="0"
       sodipodi:nodetypes="ccc" />
    <path
       style="fill:#000000;fill-opacity:1;stroke:none"
       d="m 208.43135,349.11923 c -87.6861,165.32078 -81.28886,331.76303 32.11148,461.6028 l -62.21601,24.08361 C 128.94521,784.54019 65.472475,507.48143 208.43135,349.11923 z"
       id="path4737"
       inkscape:connector-curvature="0"
       sodipodi:nodetypes="cccc" />
    <path
       style="fill:#000000;fill-opacity:1;stroke:none"
       d="M 196.38954,858.88927 403.1073,921.1053 c 0,0 -46.16028,26.09059 -118.41116,4.01393 -54.32183,-16.59833 -88.3066,-66.22996 -88.3066,-66.22996 z"
       id="path4739"
       inkscape:connector-curvature="0"
       sodipodi:nodetypes="ccsc" />
    <path
       style="fill:#000000;fill-opacity:1;stroke:none"
       d="m 187.97142,949.2377 c 25.75424,-40.46477 92.52192,-26.80865 62.25783,-0.0836 -30.26409,26.72502 -76.21088,22.00649 -62.25783,0.0836 z"
       id="path4743"
       inkscape:connector-curvature="0"
       sodipodi:nodetypes="szs" />
    <path
       sodipodi:type="arc"
       style="fill:#000000;fill-opacity:1;stroke:none"
       id="path4781"
       sodipodi:cx="570.9826"
       sodipodi:cy="674.34149"
       sodipodi:rx="53.184669"
       sodipodi:ry="44.153309"
       d="m 624.15213,673.28795 c 0.70087,24.37826 -22.53577,44.61243 -51.90049,45.19428 -29.36472,0.58185 -53.73769,-18.70894 -54.43856,-43.0872 -0.70087,-24.37826 22.53577,-44.61242 51.90049,-45.19428 29.3252,-0.58107 53.68031,18.65888 54.43605,43.00319"
       sodipodi:start="6.2593221"
       sodipodi:end="12.540604"
       sodipodi:open="true"
       transform="matrix(0.87291899,0,0,0.91510657,97.243255,39.139907)" />
    <path
       style="fill:#000000;fill-opacity:1;stroke:none"
       d="m 381.39373,772.68293 272.94773,-108.37631 80.27875,10.03484 -240.83624,128.446 z"
       id="path4846"
       inkscape:connector-curvature="0"
       sodipodi:nodetypes="ccccc" />
  </g>
</svg>
