<?xml version="1.0" encoding="UTF-8" standalone="no"?>
<!-- Created with Inkscape (http://www.inkscape.org/) -->

<svg
   xmlns:dc="http://purl.org/dc/elements/1.1/"
   xmlns:cc="http://creativecommons.org/ns#"
   xmlns:rdf="http://www.w3.org/1999/02/22-rdf-syntax-ns#"
   xmlns:svg="http://www.w3.org/2000/svg"
   xmlns="http://www.w3.org/2000/svg"
   xmlns:sodipodi="http://sodipodi.sourceforge.net/DTD/sodipodi-0.dtd"
   xmlns:inkscape="http://www.inkscape.org/namespaces/inkscape"
   id="svg3088"
   version="1.1"
   inkscape:version="0.48+devel r9695"
   width="1315.45"
   height="930.1175"
   xml:space="preserve"
   sodipodi:docname="facebook_like_icon.ai"><metadata
     id="metadata3094"><rdf:RDF><cc:Work
         rdf:about=""><dc:format>image/svg+xml</dc:format><dc:type
           rdf:resource="http://purl.org/dc/dcmitype/StillImage" /><dc:title></dc:title></cc:Work></rdf:RDF></metadata><defs
     id="defs3092"><clipPath
       clipPathUnits="userSpaceOnUse"
       id="clipPath3102"><path
         d="m 0,744.094 1052.363,0 L 1052.363,0 0,0 0,744.094 z"
         id="path3104" /></clipPath></defs><sodipodi:namedview
     pagecolor="#ffffff"
     bordercolor="#666666"
     borderopacity="1"
     objecttolerance="10"
     gridtolerance="10"
     guidetolerance="10"
     inkscape:pageopacity="0"
     inkscape:pageshadow="2"
     inkscape:window-width="1920"
     inkscape:window-height="1152"
     id="namedview3090"
     showgrid="false"
     inkscape:zoom="1.0364282"
     inkscape:cx="657.72498"
     inkscape:cy="465.05875"
     inkscape:window-x="0"
     inkscape:window-y="0"
     inkscape:window-maximized="0"
     inkscape:current-layer="g3096" /><g
     id="g3096"
     inkscape:groupmode="layer"
     inkscape:label="facebook_like_icon"
     transform="matrix(1.25,0,0,-1.25,0,930.1175)"><g
       id="g3098"><g
         id="g3100"
         clip-path="url(#clipPath3102)"><path
           d="m 257.508,636.945 579.071,0 0,-396.895 -579.071,0 0,396.895 z m 0,18.727 c -10.342,-10e-4 -18.726,-8.384 -18.727,-18.727 l 0,-396.894 c 0.001,-10.342 8.385,-18.725 18.727,-18.727 l 579.072,0 c 10.343,0.002 18.726,8.385 18.726,18.727 l 0,396.894 c 0,10.343 -8.383,18.726 -18.726,18.727 l -579.072,0 z"
           style="fill:#90aace;fill-opacity:1;fill-rule:nonzero;stroke:none"
           id="path3106" /><path
           d="m 257.508,240.051 579.071,0 0,396.895 -579.071,0 0,-396.895 z"
           style="fill:#f6f7fa;fill-opacity:1;fill-rule:nonzero;stroke:none"
           id="path3108" /><path
           d="m 215.782,353.76 88.192,0 0,-222.617 -88.192,0 0,222.617 z m 330.882,200.026 0,-180.657 134.424,0 -10e-4,-222.615 -43.363,-43.366 -137.292,0 -86.729,44.829 -91.001,0 0,177.789 91.001,0 88.133,224.022 44.828,-0.002 z m -223.963,-205.352 0,5.267 c -0.001,10.342 -8.385,18.725 -18.727,18.726 l -88.192,0 c -10.342,-0.001 -18.726,-8.384 -18.727,-18.726 l 0,-222.617 c 0.001,-10.342 8.385,-18.727 18.727,-18.727 l 88.192,0 c 10.342,0 18.726,8.385 18.727,18.727 l 0,2.4 86.32,-0.001 82.984,-43.071 c 2.614,-1.312 5.501,-1.994 8.427,-1.99 l 137.292,0 c 4.963,0.008 9.719,1.988 13.225,5.502 l 43.365,43.363 c 3.527,3.52 5.508,8.301 5.502,13.285 l 0.002,222.616 c -0.033,10.319 -8.996,18.668 -19.315,18.669 l -115.113,0 0,161.988 c 0.004,10.343 -8.377,18.732 -18.721,18.736 -0.197,0 -0.394,-0.003 -0.591,-0.009 l -44.827,10e-4 c -7.488,-0.232 -14.118,-11.754 -16.855,-18.729 L 401.003,348.435"
           style="fill:#5a85b9;fill-opacity:1;fill-rule:nonzero;stroke:none"
           id="path3110" /><path
           d="m 215.782,131.143 88.192,0 0,222.617 -88.192,0 0,-222.617 z"
           style="fill:#98aecf;fill-opacity:1;fill-rule:nonzero;stroke:none"
           id="path3112" /><g
           id="g3114"
           transform="translate(546.6646,553.7861)"><path
             d="m 0,0 -44.827,0.001 -87.979,-224.022 -91.001,0 0,-177.789 91.001,0 86.729,-44.828 137.293,0 43.363,43.366 0,222.615 -134.424,0 L 0,0 z"
             style="fill:#ffffff;fill-opacity:1;fill-rule:nonzero;stroke:none"
             id="path3116" /></g></g></g></g></svg>